<svg xmlns="http://www.w3.org/2000/svg" version="1.1" xmlns:xlink="http://www.w3.org/1999/xlink" xmlns:svgjs="http://svgjs.dev/svgjs" width="2000" height="1411" viewBox="0 0 2000 1411"><g transform="matrix(1,0,0,1,-0.7704739322399519,0.5712550607287312)"><svg viewBox="0 0 350 247" data-background-color="#ffffff" preserveAspectRatio="xMidYMid meet" height="1411" width="2000" xmlns="http://www.w3.org/2000/svg" xmlns:xlink="http://www.w3.org/1999/xlink"><g id="tight-bounds" transform="matrix(1,0,0,1,0.13483293814198305,-0.09999999999999432)"><svg viewBox="0 0 349.73033412371603 247.2" height="247.2" width="349.73033412371603"><g><svg viewBox="0 0 397.4975999999999 280.9633512809338" height="247.2" width="349.73033412371603"><g><rect width="397.4975999999999" height="8.605536363351552" x="0" y="154.40510657126242" fill="#1ebbd7" opacity="1" stroke-width="0" stroke="transparent" fill-opacity="1" class="rect-qz-0" data-fill-palette-color="secondary" rx="1%" id="qz-0" data-palette-color="#1ebbd7"></rect></g><g transform="matrix(1,0,0,1,0.9887999999999693,185.5382250376285)"><svg viewBox="0 0 395.52 95.42512624330527" height="95.42512624330527" width="395.52"><g id="textblocktransform"><svg viewBox="0 0 395.52 95.42512624330527" height="95.42512624330527" width="395.52" id="textblock"><g><svg viewBox="0 0 395.52 95.42512624330527" height="95.42512624330527" width="395.52"><g transform="matrix(1,0,0,1,0,0)"><svg width="395.52" viewBox="0.7 -29.6 196.03 47.3" height="95.42512624330527" data-palette-color="#37b5b6"><path d="M32.25-26.4L32.25-26.4Q32.25-25.3 31.35-23.85L31.35-23.85Q30.6-22.5 29.68-22 28.75-21.5 28.75-22.1L28.75-22.1Q28.75-22.15 29.3-22.7L29.3-22.7Q30.95-24.25 30.95-25.25L30.95-25.25Q30.95-27.4 26.7-27.4L26.7-27.4Q24.9-27.4 21.95-26.73 19-26.05 16.25-24.55L16.25-24.55Q13.05-22.8 13.05-21.5L13.05-21.5Q13.05-20.45 15-19.5L15-19.5Q16.05-19 19.18-17.82 22.3-16.65 24.23-15.78 26.15-14.9 27.88-13.3 29.6-11.7 29.6-9.75 29.6-7.8 27.3-5.5L27.3-5.5Q23.8-2.15 18.2 0.08 12.6 2.3 8.6 2.3L8.6 2.3Q0.7 2.3 0.7-2.15 0.7-6.6 5.55-9.7L5.55-9.7Q9.55-12.45 13.95-12.45L13.95-12.45Q15-12.45 14.9-12.1L14.9-12.1Q14.8-11.75 13.4-11.73 12-11.7 9.8-10.78 7.6-9.85 5.7-8.1L5.7-8.1Q3.2-5.85 3.2-3.6L3.2-3.6Q3.2-2.2 4.55-1.1 5.9 0 9.7 0 13.5 0 17.2-1.2L17.2-1.2Q25.2-3.85 27.2-7L27.2-7Q28-8.15 28-8.95L28-8.95Q28-11.25 25.2-12.55L25.2-12.55Q21.95-14.05 16.1-16L16.1-16Q13.85-16.75 12.28-17.98 10.7-19.2 10.7-20.93 10.7-22.65 12.58-24.33 14.45-26 17.1-27L17.1-27Q22.8-29.15 26.75-29.15L26.75-29.15Q32.25-29.15 32.25-26.4ZM41.95-5.5L41.95-5.5Q42.85-7.35 42.85-8.35 42.85-9.35 42.62-9.93 42.4-10.5 42.82-10.9 43.25-11.3 43.9-11.2L43.9-11.2Q44.9-10.95 44.9-8.95 44.9-6.95 42.55-3.7L42.55-3.7Q42.6-2.35 43.95-2.35 45.3-2.35 48.05-5.25L48.05-5.25Q49.35-6.75 49.67-7.2 50-7.65 50.25-7.53 50.5-7.4 50.5-7.3L50.5-7.3Q50.5-6.8 48.7-4.7L48.7-4.7Q45.85-1.2 43.65-1.2L43.65-1.2Q42.2-1.2 41.6-2.45L41.6-2.45Q40.6-1.4 39.65-0.5L39.65-0.5Q37.7 1.15 35.3 1.15L35.3 1.15Q33.95 1.15 33.05 0.5L33.05 0.5Q31.3-0.55 31.3-3.25L31.3-3.25Q31.3-6.2 33.3-9.25L33.3-9.25Q34.45-11.05 36-12.4L36-12.4Q38.45-14.55 40.65-14.55L40.65-14.55Q41.2-14.55 41.7-14.4L41.7-14.4Q43.2-13.9 43.2-12.5L43.2-12.5Q43.2-11.35 42.6-11.35L42.6-11.35Q42.35-11.45 42.35-12.1L42.35-12.1Q42.35-13 41.35-13L41.35-13Q39.6-13 36.85-9.8 34.1-6.6 33.55-3.35L33.55-3.35Q33.45-2.8 33.45-2.13 33.45-1.45 33.9-0.58 34.35 0.3 35.57 0.3 36.8 0.3 38.25-0.8 39.7-1.9 40.85-3.6L40.85-3.6 40.7-3.9Q40.5-4.7 40.9-5.2 41.3-5.7 41.95-5.5ZM66.3-29.25L66.3-29.25Q67.2-29.6 67.84-29.6L67.84-29.6Q70.05-29.6 70.75-28.4L70.75-28.4Q71.15-27.8 71.15-27.35L71.15-27.35Q71.15-23.95 65.45-18.8L65.45-18.8Q60.4-14.35 56.15-11.15L56.15-11.15Q54.75-8 53.25-3.4L53.25-3.4Q55.05-5.6 57.8-8.5L57.8-8.5Q63.34-14.25 65.55-14.25L65.55-14.25Q66.65-14.25 66.7-13.15L66.7-13.15Q66.8-12 66.22-10.95 65.65-9.9 65.15-9L65.15-9Q62.8-5.1 62.8-2.05L62.8-2.05Q62.8-1.05 63.2-0.6L63.2-0.6Q63.9 0.2 65.2-0.5 66.5-1.2 68.82-3.3 71.15-5.4 72.59-7.4L72.59-7.4Q72.84-7.65 73.07-7.53 73.3-7.4 73.3-7.28 73.3-7.15 73.2-7L73.2-7Q72.45-5.65 70.5-3.58 68.55-1.5 67.34-0.6L67.34-0.6Q65.05 1.15 62.95 1.15L62.95 1.15Q61.05 1.15 60.4-0.75L60.4-0.75Q60.25-1.2 60.25-1.83 60.25-2.45 60.35-3.15L60.35-3.15Q60.6-5.25 63-9.7L63-9.7Q63.5-10.6 63.5-10.98 63.5-11.35 63.1-11.35L63.1-11.35Q62.3-11.35 60-9.35L60-9.35Q58.45-7.9 55.42-3.88 52.4 0.15 52 0.4L52 0.4Q50.2 1.3 49.77 1.3 49.35 1.3 49.3 1.18 49.25 1.05 49.35 0.85 49.45 0.65 50.15-1.35L50.15-1.35Q52.5-8 53.35-10.15L53.35-10.15Q51.7-8.05 49.25-5.4L49.25-5.4Q48.85-5 48.85-5.58 48.85-6.15 49.3-6.75 49.75-7.35 51.17-9.08 52.6-10.8 53.2-11.65L53.2-11.65Q52.75-11.9 52.72-12.35 52.7-12.8 53.02-12.98 53.35-13.15 54.1-12.85L54.1-12.85Q54.6-13.55 55-14.4L55-14.4Q60.95-27.2 66.3-29.25ZM69.09-25.5L69.09-25.5Q69.75-26.7 69.75-27.53 69.75-28.35 69.02-28.35 68.3-28.35 67.09-27.45L67.09-27.45Q61.6-23.25 57.15-13.4L57.15-13.4Q60.4-15.5 63.95-19 67.5-22.5 69.09-25.5ZM76.74-13.85L76.74-13.85Q77.99-13.85 78.24-13.05L78.24-13.05Q78.34-12.6 78.12-12.18 77.89-11.75 77.79-11.5 77.69-11.25 77.64-11.1L77.64-11.1Q77.39-10.6 77.14-10.15L77.14-10.15Q74.29-4.45 74.14-2.9L74.14-2.9Q74.09-2.45 74.09-1.75 74.09-1.05 74.49-0.6L74.49-0.6Q75.19 0.2 76.49-0.5 77.79-1.2 80.12-3.3 82.44-5.4 83.89-7.4L83.89-7.4Q84.09-7.65 84.34-7.53 84.59-7.4 84.59-7.28 84.59-7.15 84.49-7L84.49-7Q83.74-5.65 81.79-3.55L81.79-3.55Q78.59-0.1 76.44 0.7L76.44 0.7Q75.19 1.15 74.34 1.15L74.34 1.15Q72.34 1.15 71.69-0.75L71.69-0.75Q71.59-1.1 71.59-1.6L71.59-1.6Q71.59-3.35 73.19-6.9L73.19-6.9Q72.94-6.35 71.24-4.4L71.24-4.4Q70.79-3.9 70.54-4.4L70.54-4.4Q70.49-4.5 70.49-4.67 70.49-4.85 70.69-5.1L70.69-5.1Q73.14-8.15 74.54-10.25L74.54-10.25Q74.44-10.5 74.64-10.9L74.64-10.9Q75.64-13.7 76.39-13.85L76.39-13.85Q76.54-13.85 76.74-13.85ZM80.69-20.5L80.69-20.5 80.29-18.9Q80.29-18.45 79.64-17.45 78.99-16.45 78.64-16.45L78.64-16.45Q76.49-16.45 76.49-17.5L76.49-17.5Q76.49-17.7 78.64-19.35L78.64-19.35 79.49-20Q80.29-20.7 80.49-20.7 80.69-20.7 80.69-20.5ZM97.14-14.2L97.14-14.2Q98.29-14.2 98.29-12.98 98.29-11.75 97.14-9.6 95.99-7.45 95.44-6.1L95.44-6.1Q94.49-3.8 94.49-2.43 94.49-1.05 94.89-0.6L94.89-0.6Q95.64 0.2 96.94-0.53 98.24-1.25 100.57-3.33 102.89-5.4 104.29-7.4L104.29-7.4Q104.49-7.65 104.77-7.53 105.04-7.4 105.04-7.28 105.04-7.15 104.94-7L104.94-7Q104.19-5.65 102.24-3.55 100.29-1.45 98.49-0.18 96.69 1.1 94.94 1.1L94.94 1.1Q93.24 1.05 92.54 0.33 91.84-0.4 91.84-1.5 91.84-2.6 92.04-3.63 92.24-4.65 92.79-6L92.79-6Q93.69-8.15 94.37-9.35 95.04-10.55 95.04-10.93 95.04-11.3 94.64-11.3L94.64-11.3Q93.84-11.3 91.59-9.35L91.59-9.35Q90.04-7.9 87.02-3.88 83.99 0.15 83.59 0.4L83.59 0.4Q81.79 1.3 81.34 1.3 80.89 1.3 80.89 1.15 80.89 1 80.99 0.73 81.09 0.45 81.97-2 82.84-4.45 83.87-7.38 84.89-10.3 85.12-10.9 85.34-11.5 85.42-11.93 85.49-12.35 85.59-12.65 85.69-12.95 85.97-13.33 86.24-13.7 86.69-13.73 87.14-13.75 87.84-13.63 88.54-13.5 88.54-13L88.54-13Q88.54-12.65 87.99-11.48 87.44-10.3 84.84-3.4L84.84-3.4Q86.64-5.6 89.39-8.47 92.14-11.35 94.04-12.85L94.04-12.85Q95.94-14.2 97.14-14.2ZM108.49-13.85L108.49-13.85Q109.74-13.85 109.99-13.05L109.99-13.05Q110.09-12.6 109.86-12.18 109.64-11.75 109.54-11.5 109.44-11.25 109.39-11.1L109.39-11.1Q109.14-10.6 108.89-10.15L108.89-10.15Q106.04-4.45 105.89-2.9L105.89-2.9Q105.84-2.45 105.84-1.75 105.84-1.05 106.24-0.6L106.24-0.6Q106.94 0.2 108.24-0.5 109.54-1.2 111.86-3.3 114.19-5.4 115.64-7.4L115.64-7.4Q115.84-7.65 116.09-7.53 116.34-7.4 116.34-7.28 116.34-7.15 116.24-7L116.24-7Q115.49-5.65 113.54-3.55L113.54-3.55Q110.34-0.1 108.19 0.7L108.19 0.7Q106.94 1.15 106.09 1.15L106.09 1.15Q104.09 1.15 103.44-0.75L103.44-0.75Q103.34-1.1 103.34-1.6L103.34-1.6Q103.34-3.35 104.94-6.9L104.94-6.9Q104.69-6.35 102.99-4.4L102.99-4.4Q102.54-3.9 102.29-4.4L102.29-4.4Q102.24-4.5 102.24-4.67 102.24-4.85 102.44-5.1L102.44-5.1Q104.89-8.15 106.29-10.25L106.29-10.25Q106.19-10.5 106.39-10.9L106.39-10.9Q107.39-13.7 108.14-13.85L108.14-13.85Q108.29-13.85 108.49-13.85ZM112.44-20.5L112.44-20.5 112.04-18.9Q112.04-18.45 111.39-17.45 110.74-16.45 110.39-16.45L110.39-16.45Q108.24-16.45 108.24-17.5L108.24-17.5Q108.24-17.7 110.39-19.35L110.39-19.35 111.24-20Q112.04-20.7 112.24-20.7 112.44-20.7 112.44-20.5ZM126.43 0.5L126.43 0.5Q125.78 1.25 126.16 1.7 126.53 2.15 127.01 2.15 127.48 2.15 127.98 2L127.98 2Q130.13 1.35 132.16-0.58 134.18-2.5 134.18-4.5L134.18-4.5Q134.18-5.6 131.73-6.9L131.73-6.9Q130.58-7.5 130.43-7.6L130.43-7.6Q129.08-8.5 128.73-9.4L128.73-9.4Q128.03-8.2 126.48-5.95L126.48-5.95Q126.13-5.55 125.83-5.78 125.53-6 125.78-6.4L125.78-6.4Q127.83-9.2 128.48-11.1L128.48-11.1Q128.83-13.85 132.48-16.05 136.13-18.25 139.13-18.25L139.13-18.25Q141.03-18.25 141.81-17.57 142.58-16.9 142.58-16.25 142.58-15.6 142.21-14.75 141.83-13.9 140.68-13.15L140.68-13.15Q140.38-12.95 140.18-13.25L140.18-13.25Q140.08-13.55 140.61-14.08 141.13-14.6 141.28-15.5 141.43-16.4 140.48-16.6L140.48-16.6Q140.33-16.6 140.18-16.6L140.18-16.6Q138.23-16.6 135.31-15.15 132.38-13.7 130.73-11.4L130.73-11.4Q130.08-10.55 130.08-9.68 130.08-8.8 131.28-8.1L131.28-8.1Q131.78-7.8 132.98-7.15 134.18-6.5 134.68-6.2 135.18-5.9 135.88-5.25 136.58-4.6 136.63-4.05L136.63-4.05Q136.88-2.55 135.23-0.75L135.23-0.75Q132.88 1.85 128.23 2.9L128.23 2.9Q127.18 3.15 126.11 3.15 125.03 3.15 124.63 2.35L124.63 2.35Q124.48 2.15 124.48 1.73 124.48 1.3 125.28 0.35L125.28 0.35Q126.03-0.4 127.68-1.1L127.68-1.1Q127.83-1.15 127.93-1.05 128.03-0.95 127.98-0.8 127.93-0.65 127.46-0.45 126.98-0.25 126.43 0.5ZM157.88-29.25L157.88-29.25Q158.78-29.6 159.43-29.6L159.43-29.6Q161.63-29.6 162.33-28.4L162.33-28.4Q162.73-27.8 162.73-27.35L162.73-27.35Q162.73-23.95 157.03-18.8L157.03-18.8Q151.98-14.35 147.73-11.15L147.73-11.15Q146.33-8 144.83-3.4L144.83-3.4Q146.63-5.6 149.38-8.5L149.38-8.5Q154.93-14.25 157.13-14.25L157.13-14.25Q158.23-14.25 158.28-13.15L158.28-13.15Q158.38-12 157.81-10.95 157.23-9.9 156.73-9L156.73-9Q154.38-5.1 154.38-2.05L154.38-2.05Q154.38-1.05 154.78-0.6L154.78-0.6Q155.48 0.2 156.78-0.5 158.08-1.2 160.41-3.3 162.73-5.4 164.18-7.4L164.18-7.4Q164.43-7.65 164.66-7.53 164.88-7.4 164.88-7.28 164.88-7.15 164.78-7L164.78-7Q164.03-5.65 162.08-3.58 160.13-1.5 158.93-0.6L158.93-0.6Q156.63 1.15 154.53 1.15L154.53 1.15Q152.63 1.15 151.98-0.75L151.98-0.75Q151.83-1.2 151.83-1.83 151.83-2.45 151.93-3.15L151.93-3.15Q152.18-5.25 154.58-9.7L154.58-9.7Q155.08-10.6 155.08-10.98 155.08-11.35 154.68-11.35L154.68-11.35Q153.88-11.35 151.58-9.35L151.58-9.35Q150.03-7.9 147.01-3.88 143.98 0.15 143.58 0.4L143.58 0.4Q141.78 1.3 141.36 1.3 140.93 1.3 140.88 1.18 140.83 1.05 140.93 0.85 141.03 0.65 141.73-1.35L141.73-1.35Q144.08-8 144.93-10.15L144.93-10.15Q143.28-8.05 140.83-5.4L140.83-5.4Q140.43-5 140.43-5.58 140.43-6.15 140.88-6.75 141.33-7.35 142.76-9.08 144.18-10.8 144.78-11.65L144.78-11.65Q144.33-11.9 144.31-12.35 144.28-12.8 144.61-12.98 144.93-13.15 145.68-12.85L145.68-12.85Q146.18-13.55 146.58-14.4L146.58-14.4Q152.53-27.2 157.88-29.25ZM160.68-25.5L160.68-25.5Q161.33-26.7 161.33-27.53 161.33-28.35 160.61-28.35 159.88-28.35 158.68-27.45L158.68-27.45Q153.18-23.25 148.73-13.4L148.73-13.4Q151.98-15.5 155.53-19 159.08-22.5 160.68-25.5ZM173.88-5.5L173.88-5.5Q174.78-7.35 174.78-8.35 174.78-9.35 174.55-9.93 174.33-10.5 174.75-10.9 175.18-11.3 175.83-11.2L175.83-11.2Q176.83-10.95 176.83-8.95 176.83-6.95 174.48-3.7L174.48-3.7Q174.53-2.35 175.88-2.35 177.23-2.35 179.98-5.25L179.98-5.25Q181.28-6.75 181.6-7.2 181.93-7.65 182.18-7.53 182.43-7.4 182.43-7.3L182.43-7.3Q182.43-6.8 180.63-4.7L180.63-4.7Q177.78-1.2 175.58-1.2L175.58-1.2Q174.13-1.2 173.53-2.45L173.53-2.45Q172.53-1.4 171.58-0.5L171.58-0.5Q169.63 1.15 167.23 1.15L167.23 1.15Q165.88 1.15 164.98 0.5L164.98 0.5Q163.23-0.55 163.23-3.25L163.23-3.25Q163.23-6.2 165.23-9.25L165.23-9.25Q166.38-11.05 167.93-12.4L167.93-12.4Q170.38-14.55 172.58-14.55L172.58-14.55Q173.13-14.55 173.63-14.4L173.63-14.4Q175.13-13.9 175.13-12.5L175.13-12.5Q175.13-11.35 174.53-11.35L174.53-11.35Q174.28-11.45 174.28-12.1L174.28-12.1Q174.28-13 173.28-13L173.28-13Q171.53-13 168.78-9.8 166.03-6.6 165.48-3.35L165.48-3.35Q165.38-2.8 165.38-2.13 165.38-1.45 165.83-0.58 166.28 0.3 167.5 0.3 168.73 0.3 170.18-0.8 171.63-1.9 172.78-3.6L172.78-3.6 172.63-3.9Q172.43-4.7 172.83-5.2 173.23-5.7 173.88-5.5ZM196.73-10.4L196.73-10.4Q196.73-8.2 194.93-5.93 193.13-3.65 190.68-1.95L190.68-1.95Q188.43-0.5 186.1 0.3 183.78 1.1 182.6 1.1 181.43 1.1 180.68 0.85L180.68 0.85Q179.58 3.4 177.63 9.4L177.63 9.4Q177.43 10.05 177.4 11.03 177.38 12 176.8 13.68 176.23 15.35 175.68 16.35L175.68 16.35Q175.43 16.95 174.23 17.32 173.03 17.7 172.53 17.7 172.03 17.7 172.03 17.2L172.03 17.2Q172.03 17 172.18 16.65L172.18 16.65Q174.48 11.95 177.98 2.83 181.48-6.3 181.83-7.3 182.18-8.3 182.83-10.2L182.83-10.2Q183.93-13.4 184.03-15L184.03-15Q184.03-15.6 185.63-15.6 187.23-15.6 187.23-14.45L187.23-14.45Q187.23-13.6 186.25-12.08 185.28-10.55 183.38-6L183.38-6Q186.28-10.4 188.08-11.75L188.08-11.75Q190.48-13.7 192.73-13.7L192.73-13.7Q193.63-13.7 194.53-13.4L194.53-13.4Q196.48-12.7 196.68-11.15L196.68-11.15Q196.73-10.75 196.73-10.4ZM194.28-11.1L194.28-11.1Q194.28-12.85 192.93-12.85L192.93-12.85Q192.13-12.85 190.33-11.9 188.53-10.95 186.73-9.05 184.93-7.15 183.95-5.48 182.98-3.8 182.13-2.02 181.28-0.25 181.13 0.05L181.13 0.05Q184.18 0.05 187.83-2.6 191.48-5.25 193.28-8.35L193.28-8.35Q194.28-9.9 194.28-11.1Z" opacity="1" transform="matrix(1,0,0,1,0,0)" fill="#37b5b6" class="wordmark-text-0" data-fill-palette-color="primary" id="text-0"></path></svg></g></svg></g></svg></g></svg></g><g transform="matrix(1,0,0,1,130.30493461871967,0)"><svg viewBox="0 0 136.88773076256058 131.87752446824788" height="131.87752446824788" width="136.88773076256058"><g><svg xmlns="http://www.w3.org/2000/svg" xmlns:xlink="http://www.w3.org/1999/xlink" version="1.1" x="8.000000000000007" y="0" viewBox="4 0 88 96" enable-background="new 0 0 96 96" xml:space="preserve" height="131.87752446824788" width="120.88773076256057" class="icon-icon-0" data-fill-palette-color="accent" id="icon-0"><path d="M60 72h12v24H60V72z" fill="#37b5b6" data-fill-palette-color="accent"></path><path d="M24 72h12v24H24V72z" fill="#37b5b6" data-fill-palette-color="accent"></path><path d="M72 41.756c-3.264 0-6.172-1.452-8-3.888-1.828 2.428-4.736 4.072-8 4.072s-6.172-1.544-8-3.976c-1.828 2.432-4.732 4.02-8 4.02s-6.172-1.572-8-4c-1.828 2.428-4.732 4.008-8 4.008s-6.172-1.572-8-4C14.172 40.42 11.268 42 8 42v52c0 1.1 0.896 2 2 2h10V70c0-1.1 0.896-2 2-2h16c1.104 0 2 0.9 2 2v26h16V70c0-1.1 0.9-2 2-2h16c1.1 0 2 0.9 2 2v26h10c1.1 0 2-0.9 2-2 0 0 0-50.436 0-52.948-3.084 0-6.632-0.916-8.221-3.252C77.943 40.072 75.141 41.756 72 41.756zM72 58c0 1.1-0.9 2-2 2H26c-1.104 0-2-0.9-2-2v-8c0-1.1 0.896-2 2-2h44c1.1 0 2 0.9 2 2V58z" fill="#37b5b6" data-fill-palette-color="accent"></path><path d="M28 52h40v4H28V52z" fill="#37b5b6" data-fill-palette-color="accent"></path><path d="M85.884 1.328C85.6 0.532 84.852 0 84 0H11.876c-0.848 0-1.604 0.536-1.888 1.336L4 18.316V32c0 3.252 1.832 6 4 6 3.308 0 6-2.692 6-6 0-1.1 0.896-2 2-2s2 0.9 2 2c0 3.308 2.692 6 6 6s6-2.692 6-6c0-1.1 0.896-2 2-2s2 0.9 2 2c0 3.308 2.692 6 6 6s6-2.692 6-6c0-1.1 0.896-2 2-2 1.104 0 2 0.9 2 2 0 3.308 2.691 6 6 6s6-2.692 6-6c0-1.1 0.9-2 2-2s2 0.9 2 2c0 3.308 2.691 6 6 6s6-2.692 6-6c0-1.1 0.9-2 2-2s2 0.9 2 2c0 2.764 1.309 6 5 6s5-3.236 5-6V18.456L85.884 1.328z" fill="#37b5b6" data-fill-palette-color="accent"></path></svg></g></svg></g><g><rect width="39.622807862947965" height="8.605536363351552" y="122.27198810489634" x="267.1926653812802" fill="#1ebbd7" data-fill-palette-color="secondary"></rect><rect width="39.622807862947965" height="8.605536363351552" y="122.27198810489634" x="90.6821267557717" fill="#1ebbd7" data-fill-palette-color="secondary"></rect></g></svg></g><defs></defs></svg><rect width="349.73033412371603" height="247.2" fill="none" stroke="none" visibility="hidden"></rect></g></svg></g></svg>